<?xml version="1.0" encoding="utf-8"?>
<!-- Generator: Adobe Illustrator 27.8.1, SVG Export Plug-In . SVG Version: 6.00 Build 0)  -->
<svg version="1.1" baseProfile="tiny" id="Layer_1" xmlns="http://www.w3.org/2000/svg" xmlns:xlink="http://www.w3.org/1999/xlink"
	 x="0px" y="0px" width="2000px" height="2000px" viewBox="0 0 2000 2000" overflow="visible" xml:space="preserve">
<path fill="#E52C56" d="M1966.64,1680.14L1042.61,264.24c-20.08-30.77-65.15-30.77-85.23,0L33.36,1680.14
	c-22.09,33.85,2.2,78.69,42.61,78.69h1848.06C1964.45,1758.83,1988.73,1713.98,1966.64,1680.14z M1142.79,1604.77
	c0,19.35-15.69,35.04-35.04,35.04H892.24c-19.35,0-35.04-15.69-35.04-35.04v-215.52c0-19.35,15.69-35.04,35.04-35.04h215.52
	c19.35,0,35.04,15.69,35.04,35.04V1604.77z M1142.79,1176.38c0,19.35-15.69,35.03-35.04,35.03H892.24
	c-19.35,0-35.03-15.69-35.03-35.03V598.43c0-19.35,15.69-35.04,35.03-35.04h215.52c19.35,0,35.04,15.69,35.04,35.04V1176.38z"/>
</svg>
